<svg width="30" height="30" viewBox="0 0 30 30" fill="none" xmlns="http://www.w3.org/2000/svg">
<path d="M15 5.16221C18.2041 5.16221 18.5836 5.1744 19.849 5.23213C21.019 5.28553 21.6544 5.48102 22.0773 5.64531C22.6373 5.863 23.0371 6.12308 23.457 6.54298C23.8769 6.96287 24.137 7.36266 24.3546 7.92274C24.519 8.34564 24.7145 8.98103 24.7679 10.151C24.8256 11.4164 24.8378 11.7959 24.8378 15C24.8378 18.2042 24.8256 18.5837 24.7679 19.849C24.7145 21.019 24.519 21.6544 24.3546 22.0773C24.137 22.6374 23.8769 23.0372 23.457 23.4571C23.0371 23.877 22.6373 24.1371 22.0773 24.3547C21.6544 24.519 21.019 24.7145 19.849 24.7679C18.5838 24.8256 18.2043 24.8378 15 24.8378C11.7956 24.8378 11.4161 24.8256 10.151 24.7679C8.98098 24.7145 8.34559 24.519 7.92274 24.3547C7.36261 24.1371 6.96282 23.877 6.54293 23.4571C6.12303 23.0372 5.86295 22.6374 5.64531 22.0773C5.48097 21.6544 5.28548 21.019 5.23209 19.8491C5.17435 18.5837 5.16216 18.2042 5.16216 15C5.16216 11.7959 5.17435 11.4164 5.23209 10.151C5.28548 8.98103 5.48097 8.34564 5.64531 7.92274C5.86295 7.36266 6.12303 6.96287 6.54293 6.54298C6.96282 6.12308 7.36261 5.863 7.92274 5.64531C8.34559 5.48102 8.98098 5.28553 10.1509 5.23213C11.4163 5.1744 11.7958 5.16221 15 5.16221ZM15 3C11.7409 3 11.3323 3.01381 10.0524 3.07221C8.77511 3.13052 7.90283 3.33334 7.1395 3.63001C6.35039 3.93668 5.68118 4.347 5.01406 5.01411C4.34695 5.68123 3.93663 6.35044 3.62996 7.13954C3.3333 7.90288 3.13047 8.77516 3.07217 10.0525C3.01377 11.3323 3 11.741 3 15C3 18.2591 3.01377 18.6677 3.07217 19.9476C3.13047 21.2249 3.3333 22.0972 3.62996 22.8605C3.93663 23.6496 4.34695 24.3188 5.01406 24.9859C5.68118 25.6531 6.35039 26.0634 7.1395 26.37C7.90283 26.6667 8.77511 26.8695 10.0524 26.9278C11.3323 26.9862 11.7409 27 15 27C18.259 27 18.6677 26.9862 19.9475 26.9278C21.2248 26.8695 22.0971 26.6667 22.8605 26.37C23.6496 26.0634 24.3188 25.6531 24.9859 24.9859C25.653 24.3188 26.0633 23.6496 26.37 22.8605C26.6667 22.0972 26.8695 21.2249 26.9278 19.9476C26.9862 18.6677 27 18.2591 27 15C27 11.741 26.9862 11.3323 26.9278 10.0525C26.8695 8.77516 26.6667 7.90288 26.37 7.13954C26.0633 6.35044 25.653 5.68123 24.9859 5.01411C24.3188 4.347 23.6496 3.93668 22.8605 3.63001C22.0971 3.33334 21.2248 3.13052 19.9475 3.07221C18.6677 3.01381 18.259 3 15 3ZM15 8.83784C11.5967 8.83784 8.83779 11.5968 8.83779 15C8.83779 18.4033 11.5967 21.1622 15 21.1622C18.4032 21.1622 21.1622 18.4033 21.1622 15C21.1622 11.5968 18.4032 8.83784 15 8.83784ZM15 19C12.7909 19 11 17.2092 11 15C11 12.7909 12.7909 11 15 11C17.2091 11 19 12.7909 19 15C19 17.2092 17.2091 19 15 19ZM22.8456 8.59438C22.8456 9.38968 22.2009 10.0344 21.4056 10.0344C20.6103 10.0344 19.9656 9.38968 19.9656 8.59438C19.9656 7.79909 20.6103 7.15441 21.4056 7.15441C22.2009 7.15441 22.8456 7.79909 22.8456 8.59438Z" fill="white"/>
</svg>
