<svg width="125" height="32" viewBox="0 0 125 32" fill="none" xmlns="http://www.w3.org/2000/svg">
<g clip-path="url(#clip0_407_1180)">
<path d="M9.95185 6.519H12.699V20.9551H9.84459L2.72037 10.9249V20.9551H0V6.49805H2.90213L9.97271 16.4084L9.95185 6.519Z" fill="white"/>
<path d="M22.558 6.58691H20.1475L14.1108 20.8853L17.1173 20.9003L18.5534 17.5509H23.9733L25.4452 20.9392H28.4874L22.558 6.58691ZM19.5665 15.0516L21.3423 10.7025L23.1748 15.0516H19.5665Z" fill="white"/>
<path d="M32.7368 6.51562H29.9658V20.9397H32.7368V6.51562Z" fill="white"/>
<path d="M42.7307 18.2826H38.6546V6.47754H35.8984V20.9405H42.7307V18.2826Z" fill="white"/>
<path d="M50.0163 20.9405H52.8052V9.12051H56.1244V6.47754H46.6255V9.13847H50.0163V20.9405Z" fill="white"/>
<path d="M64.2406 6.20801C60.1049 6.20801 56.7588 9.56934 56.7588 13.7179C56.7588 17.8664 60.1049 21.2307 64.2406 21.2307C68.3762 21.2307 71.7193 17.8664 71.7193 13.7179C71.7193 9.56934 68.3673 6.20801 64.2406 6.20801ZM64.2406 18.507C61.6036 18.507 59.4702 16.3608 59.4702 13.7179C59.4702 11.0749 61.6036 8.92581 64.2406 8.92581C66.8775 8.92581 69.0049 11.0719 69.0049 13.7179C69.0049 16.3638 66.8686 18.507 64.2406 18.507Z" fill="white"/>
<path d="M67.0166 0C66.5547 1.08353 65.4851 1.83481 64.2396 1.83481C62.9941 1.83481 61.9245 1.08353 61.4626 0.00598634H59.1177C59.66 2.34066 61.7457 4.0767 64.2396 4.0767C66.7335 4.0767 68.8163 2.33467 69.3556 0H67.0166Z" fill="white"/>
<path d="M84.6922 16.7649C83.8192 17.8305 82.4933 18.507 81.0154 18.507C78.3814 18.507 76.2481 16.3608 76.2481 13.7179C76.2481 11.0749 78.3814 8.92581 81.0154 8.92581C82.5201 8.92581 83.8609 9.62621 84.7339 10.7247L84.7488 7.20773C83.6643 6.59413 82.3443 6.20801 81.0154 6.20801C76.8857 6.20801 73.5366 9.56934 73.5366 13.7179C73.5366 17.8664 76.8857 21.2307 81.0154 21.2307C82.3532 21.2307 83.6106 20.8745 84.7012 20.255L84.6922 16.7649Z" fill="white"/>
<path d="M90.1857 20.9405H92.9775V9.12051H96.2968V6.47754H86.7979V9.13847H90.1857V20.9405Z" fill="white"/>
<path d="M107.163 0C106.699 1.08353 105.632 1.83481 104.386 1.83481C103.141 1.83481 102.074 1.08353 101.609 0.00598634H99.2705C99.8068 2.34066 101.896 4.0767 104.386 4.0767C106.877 4.0767 108.966 2.33467 109.505 0H107.163Z" fill="white"/>
<path d="M104.339 6.20801C100.209 6.20801 96.8604 9.56934 96.8604 13.7179C96.8604 17.8664 100.209 21.2307 104.339 21.2307C108.469 21.2307 111.821 17.8664 111.821 13.7179C111.821 9.56934 108.469 6.20801 104.339 6.20801ZM104.339 18.507C101.708 18.507 99.5748 16.3608 99.5748 13.7179C99.5748 11.0749 101.708 8.92581 104.339 8.92581C106.97 8.92581 109.106 11.0719 109.106 13.7179C109.106 16.3638 106.973 18.507 104.339 18.507Z" fill="white"/>
<path d="M124.943 16.7639C124.07 17.8295 122.744 18.506 121.266 18.506C118.632 18.506 116.496 16.3599 116.496 13.7169C116.496 11.0739 118.632 8.92483 121.266 8.92483C122.771 8.92483 124.109 9.62523 124.982 10.7237L125 7.20675C123.915 6.59315 122.592 6.20703 121.266 6.20703C117.137 6.20703 113.788 9.56836 113.788 13.7169C113.788 17.8654 117.137 21.2298 121.266 21.2298C122.604 21.2298 123.865 20.8736 124.949 20.254L124.943 16.7639Z" fill="white"/>
<path d="M0.0961914 26.5762H1.0586L3.14134 31.1408V26.5762H3.7462V31.8651H2.81358L0.69807 27.2586V31.8621H0.0961914V26.5762Z" fill="white"/>
<path d="M9.61919 31.866L11.2848 26.5801H12.1489L13.8711 31.869H13.1143L12.7358 30.5999H10.6889L10.2956 31.866H9.61621H9.61919ZM10.8676 30.0103H12.5481L11.693 27.1787L10.8676 30.0103Z" fill="white"/>
<path d="M19.8331 26.5801H20.5243V31.866H19.8301V26.5801H19.8331Z" fill="white"/>
<path d="M26.9365 26.583H27.6308V31.2823H29.5854V31.8719H26.9395V26.583H26.9365Z" fill="white"/>
<path d="M41.6475 31.8709L43.3131 26.585H44.1772L45.8994 31.8739H45.1426L44.7642 30.6048H42.7172L42.3239 31.8709H41.6445H41.6475ZM42.893 30.0151H44.5735L43.7183 27.1836L42.893 30.0151Z" fill="white"/>
<path d="M51.7607 31.8748V26.5889H53.5843C53.9895 26.5889 54.3023 26.7056 54.5288 26.9391C54.7552 27.1695 54.8714 27.4928 54.8714 27.9118C54.8714 28.5883 54.5377 28.9984 53.8763 29.1361C54.1623 29.163 54.3738 29.2588 54.5109 29.4174C54.6509 29.5761 54.7314 29.8544 54.7463 30.2525C54.7672 30.9409 54.8327 31.4827 54.9429 31.8808H54.2398C54.1712 31.776 54.1236 31.5456 54.0967 31.1894C54.0729 30.8362 54.055 30.483 54.0372 30.1358C54.0103 29.6808 53.7511 29.4533 53.2595 29.4533H52.458V31.8778H51.7637L51.7607 31.8748ZM52.455 28.8607H53.4502C53.6736 28.8607 53.8494 28.7799 53.9776 28.6182C54.1087 28.4596 54.1742 28.2441 54.1742 27.9777C54.1742 27.7592 54.1176 27.5736 53.9984 27.415C53.8822 27.2563 53.7064 27.1755 53.474 27.1755H52.452V28.8607H52.455Z" fill="white"/>
<path d="M60.5317 26.5889H63.9821V27.1785H62.6026V31.8748H61.9113V27.1785H60.5317V26.5889Z" fill="white"/>
<path d="M76.4844 30.3238H77.1786V30.5093C77.1786 30.7817 77.2561 31.0002 77.414 31.1589C77.5719 31.3205 77.8043 31.3983 78.1142 31.4013C78.3794 31.4013 78.5969 31.3295 78.7608 31.1858C78.9276 31.0421 79.0111 30.8326 79.0111 30.5572C79.0111 30.3357 78.9276 30.1472 78.7638 29.9885C78.6029 29.8299 78.3138 29.6473 77.8997 29.4408C77.3932 29.1804 77.0475 28.9379 76.8687 28.7164C76.69 28.4919 76.6036 28.2226 76.6036 27.9113C76.6036 27.4832 76.7406 27.136 77.0147 26.8726C77.2889 26.6092 77.6762 26.4775 78.1708 26.4775C78.6595 26.4775 79.0289 26.5973 79.2763 26.8367C79.5236 27.0762 79.6457 27.4054 79.6457 27.8245V28.028H78.9515C78.9515 27.3875 78.6774 27.0642 78.1291 27.0642C77.8669 27.0642 77.6643 27.133 77.5153 27.2707C77.3663 27.4084 77.2918 27.597 77.2918 27.8305C77.2918 28.0759 77.4051 28.2944 77.6315 28.486C77.7686 28.6057 78.0487 28.7703 78.4718 28.9828C78.8949 29.1923 79.1988 29.4079 79.3805 29.6264C79.5951 29.8838 79.7023 30.1861 79.7023 30.5273C79.7023 31.5001 79.1362 31.985 78.004 31.985C77.5213 31.985 77.1458 31.8593 76.8807 31.6078C76.6155 31.3534 76.4844 30.9882 76.4874 30.5123V30.3178L76.4844 30.3238Z" fill="white"/>
<path d="M85.379 26.5938H88.8293V27.1834H87.4498V31.8827H86.7555V27.1864H85.376V26.5967L85.379 26.5938Z" fill="white"/>
<path d="M94.6602 26.5938H95.3514V30.0269C95.3514 30.5328 95.4289 30.8919 95.5838 31.1045C95.7388 31.314 95.9831 31.4217 96.3168 31.4217C96.6505 31.4217 96.9068 31.317 97.0647 31.1104C97.2226 30.9009 97.3031 30.5417 97.3031 30.0269V26.5967H97.9973V29.9521C97.9973 30.6764 97.8573 31.2002 97.5742 31.5175C97.2971 31.8378 96.8859 31.9964 96.3406 31.9964C95.7715 31.9964 95.3484 31.8378 95.0713 31.5175C94.7972 31.2002 94.6602 30.6764 94.6602 29.9521V26.5967V26.5938Z" fill="white"/>
<path d="M104.339 31.8836V26.5977H105.969C106.538 26.5977 106.964 26.7683 107.247 27.1065C107.534 27.4447 107.674 28.1152 107.674 29.1179C107.674 30.3152 107.51 31.0754 107.188 31.3987C106.866 31.722 106.38 31.8836 105.731 31.8836H104.336H104.339ZM105.034 31.2969H105.719C106.187 31.2969 106.515 31.1832 106.699 30.9527C106.89 30.7193 106.985 30.3301 106.985 29.7824V28.6001C106.985 28.0883 106.896 27.7261 106.723 27.5106C106.547 27.2951 106.291 27.1873 105.951 27.1873H105.034V31.2969Z" fill="white"/>
<path d="M114.047 26.5977H114.738V31.8836H114.044V26.5977H114.047Z" fill="white"/>
<path d="M121.133 29.9763V28.2343C121.133 27.6806 121.273 27.2526 121.556 26.9473C121.836 26.642 122.253 26.4863 122.801 26.4893C123.35 26.4893 123.761 26.642 124.044 26.9502C124.327 27.2556 124.467 27.6776 124.467 28.2223V29.9793C124.467 30.6708 124.333 31.1826 124.068 31.5088C123.803 31.8381 123.382 31.9997 122.81 31.9997C122.206 31.9997 121.773 31.8291 121.514 31.4939C121.258 31.1527 121.13 30.6498 121.13 29.9793L121.133 29.9763ZM121.824 28.2194V30.0362C121.824 30.5061 121.893 30.8533 122.033 31.0838C122.173 31.3113 122.429 31.425 122.801 31.425C123.141 31.425 123.388 31.3203 123.54 31.1078C123.695 30.8982 123.776 30.5301 123.776 30.0033V28.1804C123.776 27.8093 123.689 27.5279 123.514 27.3394C123.338 27.1508 123.102 27.055 122.798 27.055C122.149 27.055 121.824 27.4411 121.824 28.2134V28.2194Z" fill="white"/>
</g>
<defs>
<clipPath id="clip0_407_1180">
<rect width="125" height="32" fill="white"/>
</clipPath>
</defs>
</svg>
