<svg width="131" height="22" viewBox="0 0 131 22" fill="none" xmlns="http://www.w3.org/2000/svg">
<path d="M10.4282 6.7554H13.3082V21.7122H10.3186L2.85175 11.3175V21.7122H0V6.73083H3.03904L10.4529 16.9991L10.4282 6.7554Z" fill="#111111"/>
<path d="M23.6412 6.82556H21.1145L14.7891 21.6384L17.9412 21.6525L19.4466 18.1853H25.1253L26.6661 21.6946H29.8535L23.6412 6.82556ZM20.5067 15.5954L22.369 11.0894L24.2878 15.5954H20.5067Z" fill="#111111"/>
<path d="M34.3056 6.75201H31.4009V21.6947H34.3056V6.75201Z" fill="#111111"/>
<path d="M44.78 18.9398H40.5077V6.71332H37.6206V21.6946H44.78V18.9398Z" fill="#111111"/>
<path d="M52.4128 21.6946H55.3387V9.44708H58.816V6.71332H48.8613V9.46814H52.4128V21.6946Z" fill="#111111"/>
<path d="M67.3219 6.42908C62.9895 6.42908 59.4805 9.91033 59.4805 14.2093C59.4805 18.5082 62.986 21.9929 67.3219 21.9929C71.6578 21.9929 75.1598 18.5047 75.1598 14.2093C75.1598 9.91384 71.6472 6.42908 67.3219 6.42908ZM67.3219 19.175C64.5585 19.175 62.3216 16.9535 62.3216 14.2128C62.3216 11.472 64.5585 9.25058 67.3219 9.25058C70.0853 9.25058 72.3151 11.4755 72.3151 14.2128C72.3151 16.95 70.0782 19.175 67.3219 19.175Z" fill="#111111"/>
<path d="M70.2307 0C69.7466 1.12298 68.6263 1.90206 67.3224 1.90206C66.0184 1.90206 64.8982 1.12298 64.4106 0.00701865H61.9546C62.5235 2.42494 64.7074 4.22523 67.3224 4.22523C69.9374 4.22523 72.1177 2.42144 72.6831 0H70.2307Z" fill="#111111"/>
<path d="M88.7548 17.3677C87.8395 18.4696 86.4507 19.175 84.903 19.175C82.1431 19.175 79.9062 16.9536 79.9062 14.2128C79.9062 11.472 82.1431 9.25064 84.903 9.25064C86.4825 9.25064 87.8855 9.97707 88.8007 11.1141L88.8148 7.47141C87.677 6.83622 86.2953 6.43616 84.8994 6.43616C80.5706 6.43616 77.0615 9.91741 77.0615 14.2163C77.0615 18.5153 80.5706 22 84.8994 22C86.3023 22 87.6204 21.6315 88.7618 20.9893L88.7512 17.3712L88.7548 17.3677Z" fill="#111111"/>
<path d="M94.5138 21.6946H97.4398V9.44708H100.917V6.71332H90.9624V9.46814H94.5138V21.6946Z" fill="#111111"/>
<path d="M112.307 0C111.823 1.12298 110.703 1.90206 109.395 1.90206C108.088 1.90206 106.971 1.12298 106.484 0.00701865H104.035C104.597 2.42494 106.784 4.22523 109.395 4.22523C112.007 4.22523 114.194 2.42144 114.76 0H112.304H112.307Z" fill="#111111"/>
<path d="M109.346 6.42908C105.017 6.42908 101.508 9.91033 101.508 14.2093C101.508 18.5082 105.017 21.9929 109.346 21.9929C113.675 21.9929 117.187 18.5047 117.187 14.2093C117.187 9.91384 113.675 6.42908 109.346 6.42908ZM109.346 19.175C106.586 19.175 104.352 16.9535 104.352 14.2128C104.352 11.472 106.589 9.25058 109.346 9.25058C112.102 9.25058 114.342 11.4755 114.342 14.2128C114.342 16.95 112.106 19.175 109.346 19.175Z" fill="#111111"/>
<path d="M130.936 17.3677C130.021 18.4696 128.632 19.175 127.084 19.175C124.325 19.175 122.084 16.9536 122.084 14.2128C122.084 11.472 124.321 9.25064 127.084 9.25064C128.661 9.25064 130.063 9.97707 130.979 11.1141L131 7.47141C129.862 6.83622 128.477 6.43616 127.084 6.43616C122.756 6.43616 119.247 9.91741 119.247 14.2163C119.247 18.5153 122.756 22 127.084 22C128.487 22 129.805 21.6315 130.943 20.9893L130.936 17.3712V17.3677Z" fill="#111111"/>
</svg>
