<svg width="30" height="30" viewBox="0 0 30 30" fill="none" xmlns="http://www.w3.org/2000/svg">
<g clip-path="url(#clip0_397_891)">
<path d="M17.6177 15.3464L12.5289 8.0653V7.95508H7.84424V22.058H12.5289V14.7769L17.6238 22.0641V22.058H22.2962V7.95508H17.6177V15.3464Z" fill="#3CB15B"/>
<path d="M14.9969 0C6.7177 0 0 6.7177 0 14.9969C0 23.2762 6.7177 29.9939 14.9969 29.9939C23.2762 29.9939 29.9939 23.2762 29.9939 14.9969C29.9939 6.7177 23.2823 0 14.9969 0ZM22.2964 22.0576H17.6179L12.523 14.7765V22.0576H7.84446V7.95469H12.523V8.06491L17.6118 15.346V7.95469H22.2903V22.0576H22.2964Z" fill="#231815"/>
</g>
<defs>
<clipPath id="clip0_397_891">
<rect width="30" height="30" fill="white"/>
</clipPath>
</defs>
</svg>
